# xmcd
# 
# Track frame offsets:
#     150
#     17597
#     33742
#     50891
#     71936
#     93441
#     110460
#     127860
#     144927
#     161910
#     178506
#     198380
#     222921
#     240283
#     254540
#     272482
#     290942
#     304043
#     317139
# 
# Disc length: 4655
# 
# Revision: 3
# Processed by: cddbd v1.5.2PL0 Copyright (c) Steve Scherf et al.
# Submitted via: fre:ac v1.0.31
# 
DISCID=20122d13
DTITLE=George Harrison - Let It Roll
DYEAR=2009
DGENRE=Rock/Pop
TTITLE0=Got My Mind Set On You
TTITLE1=Give Me Love (Give Me Peace On Earth)
TTITLE2=Ballad Of Sir Frankie Crisp (Let It Roll)
TTITLE3=My Sweet Lord
TTITLE4=While My Guitar Gently Weeps [Live]
TTITLE5=All Things Must Pass
TTITLE6=Any Road
TTITLE7=This Is Love
TTITLE8=All Those Years Ago
TTITLE9=Marwa Blues
TTITLE10=What Is Life
TTITLE11=Rising Sun
TTITLE12=When We Was Fab
TTITLE13=Something [Live]
TTITLE14=Blow Away
TTITLE15=Cheer Down
TTITLE16=Here Comes The Sun [Live]
TTITLE17=I Don't Want To Do It
TTITLE18=Isn't It A Pity
EXTD=
EXTT0=
EXTT1=
EXTT2=
EXTT3=
EXTT4=
EXTT5=
EXTT6=
EXTT7=
EXTT8=
EXTT9=
EXTT10=
EXTT11=
EXTT12=
EXTT13=
EXTT14=
EXTT15=
EXTT16=
EXTT17=
EXTT18=
PLAYORDER=
